<?xml version="1.0" encoding="UTF-8" standalone="no"?>
<svg width="401px" height="316px" viewBox="0 0 401 316" version="1.1" xmlns="http://www.w3.org/2000/svg" xmlns:xlink="http://www.w3.org/1999/xlink" xmlns:sketch="http://www.bohemiancoding.com/sketch/ns">
    <!-- Generator: Sketch 3.1 (8751) - http://www.bohemiancoding.com/sketch -->
    <title>Group</title>
    <desc>Created with Sketch.</desc>
    <defs></defs>
    <g id="Page-1" stroke="none" stroke-width="1" fill="none" fill-rule="evenodd" sketch:type="MSPage">
        <g id="Group" sketch:type="MSLayerGroup" fill="#FFFFFF">
            <path d="M109.681106,143.543482 C113.515481,139.704551 126.146145,119.83566 128.173684,116.6739 C125.243411,113.288242 124.340676,99.0656996 114.64302,103.352427 C104.946731,107.64463 95.9281764,129.544838 109.681106,143.543482 M139.850833,111.491578 C142.688723,115.612093 139.225442,126.156638 134.379934,123.610256 C129.201028,134.508737 123.451419,144.799855 118.251028,149.18592 C118.251028,149.18592 125.59302,154.120291 133.487942,150.092269 C145.359231,144.030192 149.148098,109.675947 148.698098,90.7108629 C146.77759,94.8231649 144.068215,101.857489 139.850833,111.491578 M161.498879,54.9514347 C167.414504,45.3267317 176.639309,7.39773668 166.728762,8.30134807 C156.815481,9.205155 157.577395,35.6979223 161.498879,54.9514347 M167.971536,126.455625 C161.603372,152.505875 137.872708,169.620717 111.668606,155.22238 C101.364309,166.224304 71.9068873,198.068343 43.492942,206.196739 C14.8271803,214.397487 -0.286511144,197.408576 0.00411385599,185.279143 C0.286691981,173.145799 16.7717896,174.360521 14.0678053,181.811747 C11.3584693,189.264341 15.5490357,201.118838 32.3743092,200.779568 C51.2044654,200.400212 78.6701685,176.77139 104.744583,149.454011 C101.932083,146.674346 90.8094264,134.857393 97.6424342,116.605655 C106.073098,94.0965213 121.913919,89.5334892 134.971926,104.332692 C134.971926,104.332692 141.411184,90.9938159 147.593215,79.9115238 C146.87134,51.5012466 141.251809,-0.0789093582 163.400637,9.06418125e-05 C189.04634,0.0912144042 182.862942,39.9095609 163.400637,65.5039966 C164.595169,72.4241228 174.066653,101.547747 167.971536,126.455625" id="path80" sketch:type="MSShapeGroup"></path>
            <path d="M287.077187,36.722279 C290.303554,31.6565018 291.488711,23.5361231 288.522304,23.7346008 C285.555898,23.9317097 284.250039,30.5020067 287.077187,36.722279 M192.406679,80.0481082 C197.549648,84.800232 204.847304,76.2400736 207.61957,70.0761181 C207.61957,70.0761181 208.806093,64.5316478 209.001601,62.1544127 C199.901406,47.4987394 187.261367,75.2948112 192.406679,80.0481082 M220.993593,54.4014622 C217.357461,57.1422146 214.937343,74.2369151 219.683633,73.641482 C224.432851,73.048982 233.289297,54.2231255 235.266054,48.6786552 C233.289297,38.9722146 238.659804,39.9215835 241.371914,39.1130067 C244.082656,38.3110785 244.891445,40.9526899 244.410781,62.1544127 C244.410781,62.1544127 251.729726,44.7259176 253.532461,40.700633 C255.332461,36.6767171 256.079726,33.2400216 258.584218,35.2539349 C267.414101,45.5853359 273.882656,42.7468112 277.642031,40.7649671 C274.280508,26.5048805 283.112929,19.296326 288.630703,18.793581 C294.147304,18.2920092 297.060195,26.6791107 287.864687,40.569227 C287.864687,40.569227 293.070547,49.4792146 300.787343,47.3002617 C308.502968,45.1240463 313.4475,29.2790711 311.269765,26.704727 C309.096133,24.1301874 308.105117,18.5843483 313.05375,20.3663458 C317.996914,22.1497122 316.988515,37.4825562 311.865859,44.7259176 C305.137343,54.2325117 287.137539,55.8187691 278.236758,43.9361132 C278.236758,43.9361132 266.64125,49.7072196 258.85082,41.7571602 C258.85082,41.7571602 248.965468,69.0866627 243.814687,70.5200042 C241.067812,71.2843879 237.881679,68.8881849 236.056289,53.1102815 C234.824258,58.3289745 232.414883,67.1423632 222.058242,77.4053236 C217.878359,81.5485216 211.376211,81.7618607 209.150429,74.161826 C202.132656,90.2160339 182.89125,92.4565835 184.46625,75.0267196 C186.433633,53.2068805 208.208828,46.7061973 209.656679,56.7869102 C211.895937,45.477982 224.630898,51.6595364 220.993593,54.4014622" id="path82" sketch:type="MSShapeGroup"></path>
            <path d="M288.776774,82.3981304 C291.196891,83.2710413 289.174625,90.5787368 285.243766,95.2596824 C282.86525,90.0316032 286.355485,81.5252195 288.776774,82.3981304 M254.042789,101.231809 C253.741422,94.990222 254.306657,78.1301749 257.666813,79.0809126 C261.028532,80.0355611 256.320914,95.0840834 254.042789,101.231809 M303.733805,88.6090165 C301.873649,91.0789398 303.362907,93.1867145 304.13693,96.9169225 C304.915055,100.647326 295.671305,111.587457 287.167008,98.1398581 C294.112516,90.3374348 294.740641,81.3965512 288.809,79.025769 C281.74025,76.199368 275.623844,88.395873 281.538102,101.937138 C281.006266,107.316764 276.176969,112.669405 274.654117,111.795125 C273.130094,110.919672 273.888102,101.021403 269.185953,99.0180487 C264.284196,96.9290462 257.677555,98.5876551 254.628141,105.082863 C261.979313,89.2552913 264.590836,76.5036353 258.041813,75.1735413 C251.74318,73.8917467 245.641617,87.2775537 248.345524,110.343012 C245.850407,116.018888 237.567008,124.841858 234.730485,123.545202 C232.256852,122.414759 232.105485,113.208521 235.657242,102.806138 C238.070719,101.552306 240.663492,100.569499 243.580485,99.9365215 C244.817985,99.6684299 244.378532,97.7577641 243.185367,97.8005883 C241.037125,97.8811527 239.036344,98.2872987 237.147867,98.9376799 C237.25236,98.685623 237.34611,98.4361081 237.461344,98.18542 C242.809,86.0278284 243.597867,84.6949967 239.7715,84.0420735 C235.007828,82.4784992 231.588492,88.5419447 226.484586,105.45166 C226.167203,105.718383 225.856461,105.98667 225.54318,106.257499 C222.466813,108.928442 219.635563,111.880969 216.614078,114.612336 C213.804313,117.154611 210.709391,119.119051 206.923258,119.80815 C201.933024,120.714695 198.295524,115.612546 200.384782,111.233326 C200.887125,110.178168 199.462125,109.094655 198.669352,110.038744 C192.980094,116.81143 202.009391,124.717101 209.175797,122.390707 C215.199821,120.43839 219.426578,116.110012 223.881071,111.796494 C224.360563,111.328556 224.842594,110.88467 225.324821,110.435504 C223.144547,126.279111 236.697867,137.786517 249.226774,116.552529 C249.450407,120.801712 251.358805,122.489848 254.065641,121.564727 C256.772282,120.640779 253.827164,113.338559 255.435563,110.044024 C257.050797,106.74812 264.408805,95.8590264 264.412711,106.742841 C264.416617,113.31568 267.929703,115.903517 272.401578,116.45065 C276.194352,116.917219 281.41486,114.282452 284.576774,103.674942 C288.920133,109.754422 300.420524,112.315469 306.263688,102.391779 C312.04943,92.5644918 305.551188,86.1954101 303.733805,88.6090165" id="path84" sketch:type="MSShapeGroup"></path>
            <path d="M114.600009,213.186668 C102.872079,194.029755 108.539853,167.98498 116.95997,169.674485 C142.56954,174.801859 154.021493,252.314547 156.038486,266.145413 C146.421103,256.52071 127.404892,234.101527 114.600009,213.186668 M225.108798,213.186668 C220.054306,223.306294 199.783212,238.216567 184.005087,227.690794 C173.270907,220.527997 169.735165,200.366767 181.417782,193.958772 C193.102939,187.54804 214.665048,194.295304 225.108798,213.186668 M226.121298,287.396804 C247.312509,273.247983 254.081259,238.822755 241.580478,209.370616 C246.594736,202.96927 257.789657,172.710119 247.888486,148.423094 C237.987118,124.136069 213.315048,137.28996 211.96915,146.059156 C210.621884,154.832458 220.729306,156.854389 218.03204,149.770591 C215.337509,142.686794 226.793564,134.590663 237.906845,146.397057 C249.029501,158.203255 240.403329,188.623535 232.521689,203.402401 C205.229892,170.011017 155.030087,181.814478 165.223251,216.07095 C175.413681,250.328596 221.401571,240.894354 229.319345,220.704965 C232.019345,228.040819 235.660946,251.597094 223.424032,274.576708 C211.187118,297.556517 178.498056,283.139604 169.424618,273.757572 C168.322275,271.586636 160.420517,233.089193 157.725986,216.557661 C151.847861,180.512542 121.674228,150.443656 105.443564,166.393247 C85.346298,186.140119 110.219345,232.076859 157.924228,274.064577 C159.520712,282.655436 162.184384,289.624057 168.67579,303.814334 C175.168759,318.003242 191.754306,316.741589 185.894931,312.579619 C180.041025,308.416084 174.232431,297.516235 171.310165,282.467713 C181.417782,291.444772 206.916025,300.212794 226.121298,287.396804" id="path86" sketch:type="MSShapeGroup" transform="translate(175.141404, 224.957951) scale(1, -1) translate(-175.141404, -224.957951) "></path>
            <path d="M360.649422,160.208355 C364.50782,160.826472 365.398445,151.569197 360.649422,143.253274 C357.145906,149.969642 356.792391,159.592977 360.649422,160.208355 M279.63282,114.596219 C276.861922,108.43109 269.565633,99.870932 264.421492,104.624229 C259.278719,109.377722 271.91993,137.172425 281.018953,122.516751 C280.819539,120.139321 279.63282,114.596219 279.63282,114.596219 M392.399617,162.575031 C387.413485,160.31434 391.212899,154.836942 393.884774,149.194504 C396.553914,143.549524 389.137117,126.023061 378.453719,124.833759 C368.72657,123.754353 363.024031,139.095214 363.024031,139.095214 C376.377938,155.863942 367.476961,168.801952 359.204305,166.742477 C351.265242,164.766108 342.551961,154.974996 349.67286,132.825274 C342.551961,120.972145 336.487703,113.175001 328.094344,114.991806 C319.705281,116.814085 316.142781,146.142835 326.52618,162.966511 C327.653719,164.79016 328.709188,166.570788 329.689461,168.300576 C341.075985,175.22735 352.726375,182.138286 365.249813,186.757439 C374.064852,190.00915 386.41036,193.031486 389.340633,181.190286 C390.146883,177.934665 394.820906,179.355882 394.274617,182.556556 C389.801375,208.639071 352.208016,187.316697 340.158602,180.586835 C338.167,179.469885 336.18907,178.322234 334.221688,177.162264 C338.424227,186.675702 338.570125,192.97908 331.56993,192.567459 C324.631063,192.158576 315.770516,180.106774 310.899617,163.001514 C309.738289,162.312219 308.582625,161.627031 307.417391,160.952598 C298.79786,155.967189 277.291805,149.060556 273.204305,162.567014 C272.367391,165.335925 268.171492,164.186709 268.878524,161.370868 C272.348641,147.540001 291.123836,148.6636 301.700008,152.325563 C304.227352,153.198474 306.694149,154.319335 309.115633,155.586464 C307.96661,149.795217 307.29161,143.592543 307.282235,137.181811 C305.30411,131.63734 296.448836,111.623551 291.699813,111.030855 C286.950594,110.435618 289.369344,127.528949 293.010945,130.269702 C296.645711,133.012996 283.910555,139.194355 281.672664,127.884254 C280.22618,137.964771 255.908992,135.8261 253.213094,107.894712 C251.534969,90.4808825 274.305281,91.2652117 281.167781,110.509338 C283.392195,102.909303 289.894344,103.122447 294.07286,107.26584 C304.4295,117.531343 306.840242,125.154256 308.075008,130.37158 C309.295125,116.190494 316.448055,108.888274 324.821297,108.400194 C335.150985,107.795375 347.333016,116.954878 352.497274,128.918098 C359.085164,119.218306 369.990828,117.421447 378.749617,118.299833 C390.619735,119.487766 397.589266,129.604655 399.225789,135.8261 C402.189656,147.114887 398.927156,165.531665 392.399617,162.575031" id="path88" sketch:type="MSShapeGroup" transform="translate(326.726346, 145.306475) scale(1, -1) translate(-326.726346, -145.306475) "></path>
        </g>
    </g>
</svg>