<svg width="401" height="316" viewBox="0 0 401 316" xmlns="http://www.w3.org/2000/svg"><title>Group</title><desc>Created with Sketch.</desc><g fill="#fff"><path d="M109.68 143.543c3.835-3.838 16.466-23.707 18.494-26.87-2.93-3.385-3.833-17.607-13.53-13.32-9.697 4.292-18.716 26.192-4.963 40.19m30.17-32.05c2.84 4.12-.625 14.664-5.47 12.117-5.18 10.9-10.93 21.19-16.13 25.576 0 0 7.343 4.934 15.238.906 11.87-6.062 15.66-40.416 15.21-59.38-1.92 4.11-4.63 11.145-8.847 20.78m21.65-56.54c5.915-9.625 15.14-47.554 5.23-46.65-9.915.903-9.153 27.396-5.23 46.65m6.472 71.504c-6.37 26.05-30.1 43.165-56.303 28.766-10.306 11.002-39.763 42.846-68.177 50.975-28.666 8.2-43.78-8.788-43.49-20.918.284-12.134 16.77-10.92 14.065-3.468-2.71 7.452 1.48 19.307 18.306 18.968 18.83-.38 46.296-24.01 72.37-51.326-2.812-2.78-13.935-14.597-7.102-32.848 8.43-22.51 24.272-27.073 37.33-12.273 0 0 6.44-13.34 12.62-24.42C146.873 51.5 141.253-.08 163.403 0c25.644.09 19.46 39.91 0 65.504 1.193 6.92 10.665 36.044 4.57 60.952"/><path d="M287.077 36.722c3.227-5.065 4.412-13.186 1.445-12.987-2.966.197-4.272 6.767-1.445 12.987m-94.67 43.326c5.143 4.752 12.44-3.808 15.213-9.972 0 0 1.186-5.544 1.382-7.922-9.1-14.655-21.74 13.14-16.595 17.894M220.994 54.4c-3.637 2.742-6.057 19.837-1.31 19.24 4.75-.59 13.605-19.417 15.582-24.96-1.977-9.708 3.394-8.758 6.106-9.567 2.71-.802 3.52 1.84 3.04 23.04 0 0 7.318-17.427 9.12-21.452 1.8-4.023 2.548-7.46 5.052-5.446 8.83 10.33 15.3 7.493 19.058 5.51-3.36-14.26 5.47-21.468 10.99-21.97 5.515-.502 8.428 7.885-.767 21.775 0 0 5.206 8.91 12.922 6.73 7.716-2.176 12.66-18.02 10.483-20.595-2.174-2.575-3.165-8.12 1.784-6.34 4.943 1.785 3.935 17.118-1.188 24.36-6.73 9.508-24.728 11.094-33.63-.79 0 0-11.595 5.772-19.385-2.178 0 0-9.885 27.33-15.035 28.763-2.747.764-5.933-1.632-7.76-17.41-1.23 5.22-3.64 14.032-13.997 24.295-4.18 4.144-10.682 4.357-12.908-3.243-7.017 16.054-26.26 18.295-24.684.865 1.968-21.82 23.743-28.32 25.19-18.24 2.24-11.31 14.975-5.127 11.338-2.386"/><path d="M288.777 82.398c2.42.873.398 8.18-3.533 12.862-2.38-5.228 1.11-13.735 3.533-12.862m-34.734 18.834c-.302-6.242.264-23.102 3.624-22.15 3.362.954-1.346 16.002-3.624 22.15m49.69-12.623c-1.86 2.47-.37 4.577.404 8.307.778 3.73-8.466 14.67-16.97 1.223 6.946-7.803 7.574-16.743 1.642-19.114-7.07-2.827-13.186 9.37-7.272 22.91-.532 5.38-5.36 10.733-6.884 9.86-1.524-.876-.766-10.775-5.468-12.778-4.902-2.09-11.508-.43-14.558 6.065 7.35-15.828 9.963-28.58 3.414-29.91-6.3-1.28-12.4 12.105-9.696 35.17-2.496 5.676-10.78 14.5-13.616 13.202-2.473-1.13-2.625-10.336.927-20.74 2.414-1.253 5.006-2.236 7.923-2.868 1.238-.27.8-2.18-.395-2.136-2.148.08-4.15.487-6.037 1.138.104-.252.198-.502.313-.753 5.35-12.157 6.138-13.49 2.31-14.143-4.762-1.564-8.182 4.5-13.285 21.41-.318.266-.63.535-.942.805-3.076 2.67-5.907 5.624-8.93 8.355-2.81 2.543-5.904 4.507-9.69 5.196-4.99.907-8.627-4.195-6.538-8.575.502-1.055-.923-2.138-1.716-1.194-5.69 6.77 3.34 14.677 10.506 12.35 6.024-1.952 10.25-6.28 14.705-10.594.48-.467.963-.91 1.445-1.36-2.18 15.843 11.373 27.35 23.902 6.117.223 4.25 2.132 5.937 4.84 5.012 2.705-.924-.24-8.226 1.37-11.52 1.614-3.297 8.972-14.186 8.976-3.302.004 6.573 3.517 9.16 7.99 9.708 3.79.467 9.012-2.168 12.174-12.775 4.343 6.08 15.844 8.64 21.687-1.283 5.785-9.828-.713-16.197-2.53-13.783"/><path d="M114.6 236.73c-11.728 19.156-6.06 45.2 2.36 43.512 25.61-5.128 37.06-82.64 39.078-96.47-9.617 9.623-28.633 32.042-41.438 52.957m110.51 0c-5.056-10.12-25.327-25.03-41.105-14.505-10.734 7.163-14.27 27.324-2.587 33.732 11.685 6.41 33.247-.336 43.69-19.228m1.013-74.21c21.193 14.148 27.96 48.573 15.46 78.025 5.015 6.402 16.21 36.66 6.308 60.948-9.9 24.287-34.573 11.133-35.92 2.364-1.346-8.773 8.76-10.795 6.064-3.712-2.694 7.084 8.762 15.18 19.875 3.374 11.123-11.807 2.496-42.228-5.385-57.006-27.292 33.39-77.492 21.588-67.3-12.67 10.192-34.257 56.18-24.822 64.097-4.633 2.7-7.335 6.34-30.89-5.896-53.87-12.237-22.98-44.926-8.564-54 .818-1.102 2.17-9.003 40.67-11.698 57.2-5.878 36.045-36.052 66.114-52.282 50.165-20.098-19.747 4.775-65.684 52.48-107.672 1.597-8.59 4.26-15.558 10.752-29.748 6.493-14.19 23.078-12.928 17.22-8.766-5.855 4.164-11.664 15.064-14.586 30.112 10.108-8.977 35.606-17.745 54.81-4.93"/><path d="M360.65 130.404c3.858-.618 4.748 8.64 0 16.955-3.504-6.718-3.858-16.34 0-16.956m-81.017 45.612c-2.77 6.165-10.067 14.725-15.212 9.972-5.14-4.754 7.5-32.548 16.6-17.893-.2 2.378-1.387 7.92-1.387 7.92M392.4 128.038c-4.987 2.26-1.187 7.738 1.485 13.38 2.67 5.645-4.748 23.172-15.43 24.36-9.728 1.08-15.43-14.26-15.43-14.26 13.353-16.77 4.452-29.707-3.82-27.647-7.94 1.976-16.653 11.767-9.532 33.917-7.12 11.853-13.185 19.65-21.58 17.833-8.388-1.822-11.95-31.15-1.567-47.975 1.128-1.823 2.183-3.604 3.163-5.334 11.386-6.925 23.036-13.836 35.56-18.455 8.815-3.252 21.16-6.274 24.09 5.567.807 3.255 5.48 1.834 4.935-1.367-4.474-26.082-42.067-4.76-54.116 1.97-1.993 1.117-3.97 2.265-5.938 3.425 4.202-9.514 4.348-15.817-2.652-15.405-6.94.408-15.8 12.46-20.67 29.565-1.162.69-2.317 1.375-3.483 2.05-8.62 4.985-30.125 11.89-34.213-1.615-.837-2.77-5.033-1.62-4.325 1.196 3.47 13.832 22.244 12.708 32.82 9.046 2.527-.872 4.994-1.993 7.416-3.26-1.15 5.79-1.824 11.993-1.834 18.404-1.978 5.545-10.833 25.558-15.582 26.15-4.75.596-2.33-16.497 1.31-19.238 3.636-2.743-9.1-8.924-11.337 2.386-1.447-10.08-25.764-7.942-28.46 19.99-1.678 17.413 21.092 16.63 27.955-2.615 2.224 7.6 8.726 7.387 12.905 3.243 10.357-10.265 12.767-17.888 14.002-23.106 1.22 14.182 8.373 21.484 16.746 21.972 10.33.605 22.513-8.555 27.677-20.518 6.588 9.7 17.494 11.497 26.253 10.618 11.87-1.188 18.84-11.305 20.476-17.526 2.964-11.29-.3-29.706-6.826-26.75"/></g></svg>