<svg width="401" height="316" viewBox="0 0 401 316" xmlns="http://www.w3.org/2000/svg"><title>Group</title><desc>Created with Sketch.</desc><g fill="#fff"><path d="M109.904 144.41c3.834-3.847 16.465-23.752 18.492-26.92-2.93-3.39-3.833-17.64-13.53-13.344-9.696 4.3-18.715 26.24-4.962 40.263m30.17-32.11c2.838 4.127-.626 14.69-5.47 12.14-5.18 10.918-10.93 21.227-16.13 25.62 0 0 7.342 4.945 15.237.91 11.872-6.074 15.66-40.49 15.21-59.49-1.92 4.12-4.63 11.168-8.846 20.82m21.648-56.642c5.915-9.642 15.14-47.64 5.23-46.734-9.914.905-9.152 27.446-5.23 46.734m6.472 71.632c-6.368 26.097-30.098 43.243-56.303 28.82-10.303 11.02-39.76 42.922-68.174 51.065C15.05 215.39-.064 198.37.226 186.22c.283-12.156 16.77-10.94 14.065-3.474-2.71 7.466 1.482 19.342 18.307 19.002 18.83-.38 46.296-24.052 72.37-51.418-2.812-2.785-13.935-14.623-7.102-32.907 8.43-22.55 24.272-27.12 37.33-12.295 0 0 6.44-13.363 12.62-24.465C147.096 52.2 141.476.53 163.624.608c25.646.09 19.463 39.98 0 65.62 1.195 6.934 10.666 36.11 4.57 61.062"/><path d="M287.973 36.46c3.227-5.075 4.412-13.21 1.446-13.01-2.968.196-4.274 6.78-1.447 13.01m-94.67 43.404c5.143 4.76 12.44-3.815 15.213-9.99 0 0 1.186-5.555 1.382-7.936-9.1-14.682-21.74 13.164-16.595 17.926M221.89 54.17c-3.636 2.747-6.056 19.872-1.31 19.275 4.75-.593 13.606-19.453 15.582-25.007-1.976-9.724 3.394-8.773 6.106-9.583 2.71-.803 3.52 1.843 3.04 23.083 0 0 7.318-17.46 9.12-21.493 1.8-4.03 2.548-7.474 5.052-5.456 8.83 10.35 15.3 7.505 19.058 5.52-3.36-14.286 5.47-21.507 10.99-22.01 5.516-.503 8.428 7.9-.767 21.814 0 0 5.207 8.926 12.924 6.743 7.715-2.18 12.66-18.054 10.482-20.633-2.174-2.58-3.165-8.135 1.784-6.35 4.943 1.787 3.935 17.148-1.188 24.404-6.728 9.524-24.728 11.113-33.63-.79 0 0-11.594 5.78-19.385-2.184 0 0-9.885 27.378-15.036 28.814-2.746.766-5.932-1.634-7.757-17.44-1.232 5.227-3.642 14.057-14 24.338-4.178 4.15-10.68 4.364-12.906-3.25-7.018 16.084-26.26 18.328-24.684.867 1.967-21.86 23.742-28.37 25.19-18.272 2.24-11.33 14.974-5.136 11.337-2.39"/><path d="M115.877 236.646c-11.728 19.19-6.06 45.283 2.36 43.59 25.61-5.136 37.06-82.788 39.078-96.644-9.617 9.642-28.633 32.1-41.438 53.054m110.51 0c-5.056-10.138-25.327-25.075-41.105-14.53-10.734 7.175-14.27 27.373-2.587 33.792 11.685 6.423 33.247-.337 43.69-19.262m1.013-74.343c21.19 14.174 27.96 48.66 15.46 78.166 5.014 6.412 16.21 36.725 6.307 61.056-9.9 24.33-34.573 11.153-35.92 2.368-1.346-8.79 8.76-10.815 6.064-3.718-2.696 7.096 8.76 15.207 19.874 3.38 11.122-11.828 2.496-42.303-5.385-57.108-27.293 33.45-77.493 21.626-67.3-12.692 10.19-34.32 56.18-24.868 64.096-4.642 2.7-7.35 6.342-30.947-5.895-53.968-12.236-23.02-44.925-8.58-53.998.82-1.103 2.175-9.005 40.742-11.7 57.303-5.877 36.11-36.05 66.232-52.28 50.253-20.1-19.782 4.774-65.8 52.48-107.864 1.596-8.608 4.26-15.59 10.75-29.804 6.494-14.215 23.08-12.95 17.22-8.78-5.854 4.17-11.663 15.09-14.585 30.165 10.108-8.993 35.606-17.776 54.81-4.937"/><path d="M361.027 131.556c3.858-.62 4.75 8.655 0 16.986-3.504-6.73-3.857-16.37 0-16.986M280.01 177.25c-2.77 6.177-10.067 14.752-15.21 9.99-5.144-4.762 7.497-32.606 16.596-17.924-.2 2.38-1.386 7.934-1.386 7.934m112.767-48.065c-4.986 2.265-1.187 7.752 1.485 13.405 2.67 5.655-4.748 23.213-15.43 24.404-9.728 1.082-15.43-14.287-15.43-14.287 13.353-16.798 4.452-29.76-3.82-27.696-7.94 1.98-16.653 11.79-9.532 33.98-7.12 11.873-13.185 19.684-21.58 17.864-8.388-1.825-11.95-31.207-1.567-48.06 1.128-1.828 2.183-3.61 3.164-5.344 11.386-6.94 23.037-13.863 35.56-18.49 8.815-3.258 21.16-6.286 24.09 5.577.807 3.26 5.48 1.837 4.935-1.37-4.473-26.128-42.067-4.768-54.116 1.974-1.992 1.12-3.97 2.27-5.937 3.432 4.2-9.53 4.347-15.845-2.653-15.433-6.94.41-15.8 12.482-20.67 29.618-1.162.69-2.317 1.377-3.482 2.053-8.62 4.995-30.126 11.914-34.214-1.617-.835-2.773-5.03-1.622-4.324 1.2 3.47 13.854 22.245 12.73 32.82 9.06 2.528-.874 4.995-1.997 7.417-3.266-1.15 5.8-1.824 12.015-1.834 18.437-1.98 5.555-10.834 25.604-15.583 26.198-4.75.596-2.33-16.528 1.31-19.273 3.636-2.75-9.1-8.942-11.337 2.388-1.447-10.098-25.764-7.956-28.46 20.026-1.678 17.445 21.092 16.66 27.955-2.62 2.224 7.614 8.726 7.4 12.905 3.25 10.357-10.284 12.767-17.92 14.002-23.147 1.22 14.206 8.373 21.522 16.746 22.01 10.33.606 22.512-8.57 27.676-20.554 6.588 9.717 17.494 11.517 26.253 10.637 11.87-1.19 18.84-11.325 20.476-17.558 2.964-11.31-.3-29.758-6.826-26.797"/></g></svg>