<?xml version="1.0" encoding="UTF-8" standalone="no"?>
<svg width="401px" height="316px" viewBox="0 0 401 316" version="1.1" xmlns="http://www.w3.org/2000/svg" xmlns:xlink="http://www.w3.org/1999/xlink" xmlns:sketch="http://www.bohemiancoding.com/sketch/ns">
    <!-- Generator: Sketch 3.1 (8751) - http://www.bohemiancoding.com/sketch -->
    <title>Group</title>
    <desc>Created with Sketch.</desc>
    <defs></defs>
    <g id="Page-1" stroke="none" stroke-width="1" fill="none" fill-rule="evenodd" sketch:type="MSPage">
        <g id="Group" sketch:type="MSLayerGroup" transform="translate(1.000000, 0.000000)" fill="#FFFFFF">
            <path d="M108.903906,65.5331894 C112.738281,69.3790103 125.368945,89.2835625 127.396484,92.4509972 C124.466211,95.8427323 123.563477,110.090801 113.86582,105.79638 C104.169531,101.496473 95.1509766,79.556958 108.903906,65.5331894 M139.073633,97.6426203 C141.911523,93.5147099 138.448242,82.9512398 133.602734,85.5021912 C128.423828,74.5841502 122.674219,64.2745606 117.473828,59.8806241 C117.473828,59.8806241 124.81582,54.9373965 132.710742,58.9726483 C144.582031,65.0456054 148.370898,99.4615103 147.920898,118.460633 C146.000391,114.340951 143.291016,107.294001 139.073633,97.6426203 M160.72168,154.284243 C166.637305,163.926221 175.862109,201.923292 165.951563,201.018059 C156.038281,200.11263 156.800195,173.572313 160.72168,154.284243 M167.194336,82.6517155 C160.826172,56.5547099 137.095508,39.4091502 110.891406,53.8333293 C100.587109,42.8116595 71.1296875,10.9104655 42.7157422,2.76748042 C14.0499805,-5.44798599 -1.06371094,11.571417 -0.773085937,23.7226203 C-0.490507812,35.8777416 15.9945898,34.6608386 13.2906055,27.1962398 C10.5812695,19.7302696 14.7718359,7.85449535 31.5971094,8.19437408 C50.4272656,8.57441139 77.8929688,32.2456427 103.967383,59.6120513 C101.154883,62.3967062 90.0322266,74.2348685 96.8652344,92.5193648 C105.295898,115.068898 121.136719,119.64012 134.194727,104.814355 C134.194727,104.814355 140.633984,118.177173 146.816016,129.279355 C146.094141,157.740624 140.474609,209.413357 162.623437,209.334215 C188.269141,209.242928 182.085742,169.353115 162.623437,143.712742 C163.817969,136.780195 173.289453,107.604299 167.194336,82.6517155" id="path80-2" sketch:type="MSShapeGroup" transform="translate(89.420237, 104.971138) scale(1, -1) translate(-89.420237, -104.971138) "></path>
            <path d="M286.973438,69.0240595 C290.199805,74.0989289 291.384961,82.2338822 288.418555,82.0350483 C285.452148,81.8375856 284.146289,75.255496 286.973438,69.0240595 M192.30293,25.6204681 C197.445898,20.8598151 204.743555,29.4353375 207.51582,35.6103561 C207.51582,35.6103561 208.702344,41.1647778 208.897852,43.5462796 C199.797656,58.2282572 187.157617,30.3822964 192.30293,25.6204681 M220.889844,51.3131453 C217.253711,48.5674737 214.833594,31.4420912 219.579883,32.0385931 C224.329102,32.6321565 233.185547,51.491802 235.162305,57.0462237 C233.185547,66.7700856 238.556055,65.8190128 241.268164,66.6290408 C243.978906,67.4324084 244.787695,64.7860557 244.307031,43.5462796 C244.307031,43.5462796 251.625977,61.0060557 253.428711,65.0385651 C255.228711,69.0697031 255.975977,72.5125669 258.480469,70.495039 C267.310352,60.1450949 273.778906,62.9887143 277.538281,64.9741154 C274.176758,79.2597964 283.00918,86.481289 288.526953,86.9849363 C294.043555,87.4874084 296.956445,79.0852535 287.760938,65.1702069 C287.760938,65.1702069 292.966797,56.2442274 300.683594,58.4270912 C308.399219,60.6072125 313.34375,76.4806266 311.166016,79.0595912 C308.992383,81.6387516 308.001367,87.1945445 312.95,85.4093487 C317.893164,83.6227815 316.884766,68.2624177 311.762109,61.0060557 C305.033594,51.482399 287.033789,49.8932945 278.133008,61.7972778 C278.133008,61.7972778 266.5375,56.0158132 258.74707,63.9801416 C258.74707,63.9801416 248.861719,36.6015875 243.710938,35.1656733 C240.964063,34.3999177 237.77793,36.8004214 235.952539,52.6066434 C234.720508,47.3785837 232.311133,38.5493766 221.954492,28.267996 C217.774609,24.1173617 211.272461,23.9036397 209.04668,31.5173151 C202.028906,15.4342927 182.7875,13.1897218 184.3625,30.6508692 C186.329883,52.509871 208.105078,59.0222218 209.55293,48.9234158 C211.792188,60.2526416 224.527148,54.0599923 220.889844,51.3131453" id="path82-2" sketch:type="MSShapeGroup" transform="translate(250.223310, 52.742165) scale(1, -1) translate(-250.223310, -52.742165) "></path>
            <path d="M114.876953,213.060104 C103.149023,193.868807 108.816797,167.777287 117.236914,169.469824 C142.846484,174.606401 154.298438,252.25821 156.31543,266.113901 C146.698047,256.471923 127.681836,234.012502 114.876953,213.060104 M225.385742,213.060104 C220.33125,223.197893 200.060156,238.134927 184.282031,227.590263 C173.547852,220.41461 170.012109,200.217194 181.694727,193.797697 C193.379883,187.375459 214.941992,194.134834 225.385742,213.060104 M226.398242,287.403434 C247.589453,273.229218 254.358203,238.742203 241.857422,209.237203 C246.87168,202.824367 258.066602,172.510906 248.16543,148.180291 C238.264063,123.849675 213.591992,137.027175 212.246094,145.81211 C210.898828,154.601158 221.00625,156.626718 218.308984,149.530207 C215.614453,142.433696 227.070508,134.323033 238.183789,146.150617 C249.306445,157.978005 240.680273,188.452884 232.798633,203.258276 C205.506836,169.80696 155.307031,181.631606 165.500195,215.949563 C175.690625,250.268696 221.678516,240.81752 229.596289,220.591895 C232.296289,227.940916 235.937891,251.53947 223.700977,274.560328 C211.464062,297.581382 178.775,283.138593 169.701562,273.739722 C168.599219,271.56489 160.697461,232.99835 158.00293,216.437147 C152.124805,180.327334 121.951172,150.204479 105.720508,166.182697 C85.6232422,185.965011 110.496289,231.984199 158.201172,274.047278 C159.797656,282.653556 162.461328,289.634684 168.952734,303.850431 C175.445703,318.064806 192.03125,316.800888 186.171875,312.631447 C180.317969,308.46044 174.509375,297.541028 171.587109,282.465496 C181.694727,291.458668 207.192969,300.242427 226.398242,287.403434" id="path86-2" sketch:type="MSShapeGroup" transform="translate(175.418348, 224.852515) scale(1, -1) translate(-175.418348, -224.852515) "></path>
            <path d="M360.026562,161.413633 C363.884961,162.032859 364.775586,152.758969 360.026562,144.42812 C356.523047,151.156544 356.169531,160.79715 360.026562,161.413633 M279.009961,115.719631 C276.239062,109.543437 268.942773,100.967915 263.798633,105.729743 C258.655859,110.491768 271.29707,138.336357 280.396094,123.654379 C280.19668,121.272682 279.009961,115.719631 279.009961,115.719631 M391.776758,163.784557 C386.790625,161.519809 390.590039,156.032579 393.261914,150.380014 C395.931055,144.724902 388.514258,127.166982 377.830859,125.975546 C368.103711,124.894202 362.401172,140.262598 362.401172,140.262598 C375.755078,157.061422 366.854102,170.022654 358.581445,167.959482 C350.642383,165.979566 341.929102,156.170881 349.05,133.981404 C341.929102,122.107001 335.864844,114.295863 327.471484,116.115928 C319.082422,117.941478 315.519922,147.322868 325.90332,164.17674 C327.030859,166.003661 328.086328,167.787486 329.066602,169.520378 C340.453125,176.459585 352.103516,183.382924 364.626953,188.010368 C373.441992,191.267915 385.7875,194.295676 388.717773,182.433223 C389.524023,179.171758 394.198047,180.595527 393.651758,183.801945 C389.178516,209.931273 351.585156,188.570629 339.535742,181.828689 C337.544141,180.709734 335.566211,179.560023 333.598828,178.397971 C337.801367,187.928484 337.947266,194.243176 330.94707,193.830816 C324.008203,193.421198 315.147656,181.347766 310.276758,164.211805 C309.11543,163.521273 307.959766,162.834855 306.794531,162.159212 C298.175,157.164855 276.668945,150.245825 272.581445,163.776525 C271.744531,166.550406 267.548633,165.399128 268.255664,162.578232 C271.725781,148.722542 290.500977,149.848157 301.077148,153.516693 C303.604492,154.391171 306.071289,155.514044 308.492773,156.783447 C307.34375,150.981805 306.66875,144.767999 306.659375,138.34576 C304.68125,132.791338 295.825977,112.741628 291.076953,112.147868 C286.327734,111.551562 288.746484,128.675573 292.388086,131.421245 C296.022852,134.169463 283.287695,140.361917 281.049805,129.031516 C279.60332,139.130126 255.286133,136.987616 252.590234,109.006096 C250.912109,91.5610119 273.682422,92.3467489 280.544922,111.625415 C282.769336,104.01174 289.271484,104.225266 293.45,108.376096 C303.806641,118.660023 306.217383,126.296618 307.452148,131.523307 C308.672266,117.316768 315.825195,110.001441 324.198437,109.512486 C334.528125,108.906581 346.710156,118.082523 351.874414,130.067215 C358.462305,120.350014 369.367969,118.54993 378.126758,119.429893 C389.996875,120.619958 396.966406,130.755004 398.60293,136.987616 C401.566797,148.296665 398.304297,166.746497 391.776758,163.784557" id="path88-2" sketch:type="MSShapeGroup" transform="translate(326.103486, 146.485007) scale(1, -1) translate(-326.103486, -146.485007) "></path>
        </g>
    </g>
</svg>